<!-- Animated using SVGANIMA - https://svganima.com -->
<svg height="800px" width="800px" version="1.1" id="Layer_1" xmlns="http://www.w3.org/2000/svg" xmlns:xlink="http://www.w3.org/1999/xlink" viewBox="0 0 512 512" xml:space="preserve" preserveAspectRatio="xMidYMid">
<defs id="defs6317"></defs><path style="fill:#EFF2FA;" d=" M 478.33,59.324 H 33.67 c -14.168,0 -25.653,11.485 -25.653,25.653 v 42.756 h 495.967 V 84.977 C 503.983,70.809,492.498,59.324,478.33,59.324 z " id="path4531"></path>
<path style="fill:#FF6464;" d=" M 503.983,127.733 H 8.017 v 299.29 c 0,14.168,11.485,25.653,25.653,25.653 h 444.66 c 14.168,0,25.653 -11.485,25.653 -25.653 V 127.733 z " id="path4648"></path>
<path d=" M 170.489,307.841 h -9.086 v -86.046 c 0 -4.427 -3.589 -8.017 -8.017 -8.017 c -4.427,0 -8.017,3.589 -8.017,8.017 v 86.046 h -42.235 l 15.384 -84.611 c 0.792 -4.356 -2.097 -8.529 -6.453 -9.322 c -4.355 -0.79 -8.53,2.097 -9.322,6.454 l -17.102,94.063 c -0.425,2.339,0.21,4.746,1.733,6.57 c 1.523,1.825,3.777,2.88,6.155,2.88 h 51.841 v 17.637 c 0,4.427,3.589,8.017,8.017,8.017 c 4.427,0,8.017 -3.589,8.017 -8.017 v -17.637 h 9.086 c 4.427,0,8.017 -3.589,8.017 -8.017 C 178.505,311.431,174.916,307.841,170.489,307.841 z " id="path9360"></path>
<path d="M 418.472 307.841 L 409.38599999999997 307.841 L 409.38599999999997 221.79500000000002 C 409.38599999999997 217.36800000000002 405.79699999999997 213.77800000000002 401.36899999999997 213.77800000000002 C 396.94199999999995 213.77800000000002 393.352 217.36700000000002 393.352 221.79500000000002 L 393.352 307.841 L 351.11699999999996 307.841 L 366.501 223.23000000000002 C 367.29299999999995 218.87400000000002 364.404 214.70100000000002 360.048 213.90800000000002 C 355.693 213.11800000000002 351.51800000000003 216.00500000000002 350.726 220.36200000000002 L 333.624 314.425 C 333.199 316.764 333.834 319.171 335.357 320.995 S 339.134 323.875 341.512 323.875 L 393.353 323.875 L 393.353 341.512 C 393.353 345.939 396.942 349.529 401.37 349.529 C 405.797 349.529 409.387 345.94 409.387 341.512 L 409.387 323.875 L 418.473 323.875 C 422.90000000000003 323.875 426.49 320.286 426.49 315.858 C 426.489 311.431 422.899 307.841 418.472 307.841 Z" id="path5380"></path>

<path d="M 256 213.779 C 223.289 213.779 196.676 240.391 196.676 273.103 L 196.676 341.512 C 196.676 344.29 198.11499999999998 346.87 200.47799999999998 348.332 C 202.84099999999998 349.793 205.79299999999998 349.926 208.278 348.683 L 221.795 341.924 L 235.31199999999998 348.683 C 237.56799999999998 349.812 240.22599999999997 349.812 242.48199999999997 348.683 L 256 341.923 L 269.517 348.682 C 271.77299999999997 349.81100000000004 274.431 349.81100000000004 276.687 348.682 L 290.204 341.923 L 303.721 348.682 C 304.853 349.247 306.081 349.529 307.306 349.529 C 308.77299999999997 349.529 310.234 349.127 311.52099999999996 348.332 C 313.88399999999996 346.872 315.323 344.291 315.323 341.512 L 315.323 273.103 C 315.324 240.391 288.711 213.779 256 213.779 Z M 299.29 328.54 L 293.78900000000004 325.79 C 291.5330000000001 324.661 288.87500000000006 324.661 286.619 325.79 L 273.10200000000003 332.54900000000004 L 259.58500000000004 325.79 C 258.456 325.226 257.228 324.94300000000004 256.00000000000006 324.94300000000004 C 254.77200000000005 324.94300000000004 253.54400000000007 325.225 252.41500000000005 325.79 L 238.89800000000005 332.54900000000004 L 225.38100000000006 325.79 C 223.12500000000006 324.661 220.46700000000007 324.661 218.21100000000007 325.79 L 212.71000000000006 328.54 L 212.71000000000006 273.10200000000003 C 212.71000000000006 249.23100000000002 232.13000000000005 229.81200000000004 256.00000000000006 229.81200000000004 S 299.2900000000001 249.23200000000003 299.2900000000001 273.10200000000003 L 299.2900000000001 328.54 Z" id="path2534"><animateTransform attributeName="transform" attributeType="auto" type="rotate" values="0.72 254 205.5;0.72 254 205.5;0.72 254 205.5;0.72 254 205.5" calcMode="spline" keyTimes="0; 0.59975; 0.75; 1" keySplines="0 0 1 1;0 0 1 1;0 0 1 1" dur="4s" begin="0s" repeatCount="1" additive="sum" accumulate="none" fill="freeze" id="animateTransform6492"></animateTransform><animateTransform attributeName="transform" attributeType="auto" type="rotate" values="0 257 196.5;7.46 257 196.5;-7.46 257 196.5;0 257 196.5" calcMode="spline" keyTimes="0;0.25;0.75;1" keySplines="0 0 1 1;0 0 1 1;0 0 1 1" dur="2s" begin="0s" repeatCount="indefinite" additive="sum" accumulate="none" fill="freeze" id="animateTransform8650"></animateTransform></path><path d="M 238.898 256.534 C 234.471 256.534 230.881 260.123 230.881 264.551 L 230.881 273.102 C 230.881 277.529 234.47 281.11899999999997 238.898 281.11899999999997 S 246.915 277.53 246.915 273.102 L 246.915 264.551 C 246.914 260.124 243.325 256.534 238.898 256.534 Z" id="path7605"></path>
<path d="M 273.102 256.534 C 268.67499999999995 256.534 265.085 260.123 265.085 264.551 L 265.085 273.102 C 265.085 277.529 268.674 281.11899999999997 273.102 281.11899999999997 C 277.529 281.11899999999997 281.11899999999997 277.53 281.11899999999997 273.102 L 281.11899999999997 264.551 C 281.119 260.124 277.53 256.534 273.102 256.534 Z" id="path7545"></path>
<path d=" M 478.33,51.307 H 33.67 C 15.105,51.307,0,66.411,0,84.977 v 342.046 c 0,18.566,15.105,33.67,33.67,33.67 h 444.66 c 18.566,0,33.67 -15.105,33.67 -33.67 V 84.977 C 512,66.411,496.895,51.307,478.33,51.307 z M 33.67,67.34 h 444.66 c 9.725,0,17.637,7.912,17.637,17.637 v 34.739 H 16.033 V 84.977 C 16.033,75.252,23.945,67.34,33.67,67.34 z M 478.33,444.66 H 33.67 c -9.725,0 -17.637 -7.912 -17.637 -17.637 V 135.749 h 479.933 v 291.273 C 495.967,436.748,488.055,444.66,478.33,444.66 z " id="path1100"></path>
<path d=" M 127.733,101.545 h 342.046 c 4.427,0,8.017 -3.589,8.017 -8.017 c 0 -4.427 -3.589 -8.017 -8.017 -8.017 H 127.733 c -4.427,0 -8.017,3.589 -8.017,8.017 C 119.716,97.956,123.305,101.545,127.733,101.545 z " id="path3241"></path>
<circle cx="42.221" cy="93.528" r="8.017" id="circle14"></circle>
<circle cx="67.875" cy="93.528" r="8.017" id="circle6208"></circle>
<circle cx="93.528" cy="93.528" r="8.017" id="circle7921"></circle>
</svg>